<svg width="676" height="210" viewBox="0 0 676 210" fill="none" xmlns="http://www.w3.org/2000/svg">
<path d="M200 128C200.8 130 198 132.5 196.5 132L161.5 111L166 109C177 115.5 199.2 126 200 128Z" fill="#973F27" stroke="black"/>
<path d="M266.314 129V79.3677H285.895C289.66 79.3677 292.867 80.0866 295.516 81.5245C298.166 82.9463 300.186 84.9255 301.575 87.462C302.981 89.9824 303.683 92.8905 303.683 96.1864C303.683 99.4823 302.973 102.39 301.551 104.911C300.129 107.431 298.069 109.394 295.371 110.8C292.689 112.205 289.442 112.908 285.629 112.908H273.148V104.499H283.932C285.952 104.499 287.616 104.152 288.925 103.457C290.249 102.746 291.235 101.768 291.881 100.524C292.544 99.2642 292.875 97.8182 292.875 96.1864C292.875 94.5385 292.544 93.1006 291.881 91.8727C291.235 90.6287 290.249 89.6674 288.925 88.9888C287.6 88.2941 285.919 87.9467 283.884 87.9467H276.807V129H266.314ZM310.305 129V91.7758H320.629V129H310.305ZM315.492 86.9773C313.957 86.9773 312.64 86.4684 311.541 85.4505C310.459 84.4165 309.918 83.1806 309.918 81.7427C309.918 80.3209 310.459 79.1011 311.541 78.0832C312.64 77.0492 313.957 76.5322 315.492 76.5322C317.027 76.5322 318.335 77.0492 319.418 78.0832C320.516 79.1011 321.066 80.3209 321.066 81.7427C321.066 83.1806 320.516 84.4165 319.418 85.4505C318.335 86.4684 317.027 86.9773 315.492 86.9773ZM328.706 129V122.844L346.93 100.282V100.015H329.336V91.7758H359.362V98.4887L342.253 120.494V120.76H359.992V129H328.706ZM367.693 129V122.844L385.917 100.282V100.015H368.323V91.7758H398.35V98.4887L381.24 120.494V120.76H398.98V129H367.693ZM417.489 129.703C415.114 129.703 412.997 129.291 411.139 128.467C409.281 127.627 407.811 126.391 406.729 124.759C405.662 123.111 405.129 121.059 405.129 118.603C405.129 116.535 405.509 114.799 406.268 113.393C407.028 111.987 408.062 110.856 409.37 110C410.679 109.144 412.165 108.498 413.829 108.061C415.51 107.625 417.271 107.318 419.112 107.14C421.277 106.914 423.022 106.704 424.347 106.51C425.672 106.3 426.633 105.993 427.231 105.589C427.829 105.186 428.128 104.588 428.128 103.796V103.651C428.128 102.116 427.643 100.928 426.674 100.088C425.72 99.2481 424.363 98.828 422.602 98.828C420.744 98.828 419.266 99.24 418.167 100.064C417.069 100.872 416.342 101.89 415.986 103.118L406.438 102.342C406.923 100.08 407.876 98.1252 409.297 96.4773C410.719 94.8131 412.553 93.5368 414.799 92.6482C417.061 91.7434 419.678 91.2911 422.651 91.2911C424.719 91.2911 426.698 91.5334 428.588 92.0181C430.495 92.5028 432.183 93.2541 433.653 94.2719C435.14 95.2898 436.311 96.5984 437.167 98.1979C438.023 99.7812 438.452 101.68 438.452 103.893V129H428.661V123.838H428.37C427.772 125.001 426.973 126.027 425.971 126.916C424.969 127.788 423.766 128.475 422.36 128.976C420.954 129.46 419.331 129.703 417.489 129.703ZM420.445 122.578C421.964 122.578 423.305 122.279 424.468 121.681C425.632 121.067 426.544 120.243 427.207 119.209C427.869 118.175 428.2 117.004 428.2 115.695V111.745C427.877 111.955 427.433 112.149 426.868 112.327C426.318 112.488 425.696 112.642 425.001 112.787C424.307 112.916 423.612 113.038 422.917 113.151C422.223 113.248 421.592 113.336 421.027 113.417C419.815 113.595 418.757 113.878 417.852 114.265C416.948 114.653 416.245 115.178 415.744 115.841C415.243 116.487 414.993 117.295 414.993 118.264C414.993 119.67 415.502 120.744 416.519 121.487C417.553 122.214 418.862 122.578 420.445 122.578ZM446.655 129V79.3677H457.149V99.8459H478.451V79.3677H488.92V129H478.451V108.498H457.149V129H446.655ZM514.197 129.727C510.432 129.727 507.177 128.927 504.43 127.328C501.7 125.712 499.591 123.466 498.105 120.591C496.619 117.699 495.875 114.346 495.875 110.533C495.875 106.688 496.619 103.328 498.105 100.452C499.591 97.5597 501.7 95.314 504.43 93.7145C507.177 92.0989 510.432 91.2911 514.197 91.2911C517.961 91.2911 521.209 92.0989 523.939 93.7145C526.686 95.314 528.802 97.5597 530.288 100.452C531.775 103.328 532.518 106.688 532.518 110.533C532.518 114.346 531.775 117.699 530.288 120.591C528.802 123.466 526.686 125.712 523.939 127.328C521.209 128.927 517.961 129.727 514.197 129.727ZM514.245 121.73C515.958 121.73 517.388 121.245 518.535 120.276C519.682 119.29 520.546 117.949 521.128 116.253C521.726 114.556 522.024 112.626 522.024 110.461C522.024 108.296 521.726 106.365 521.128 104.669C520.546 102.972 519.682 101.631 518.535 100.646C517.388 99.6601 515.958 99.1673 514.245 99.1673C512.516 99.1673 511.062 99.6601 509.883 100.646C508.72 101.631 507.839 102.972 507.241 104.669C506.66 106.365 506.369 108.296 506.369 110.461C506.369 112.626 506.66 114.556 507.241 116.253C507.839 117.949 508.72 119.29 509.883 120.276C511.062 121.245 512.516 121.73 514.245 121.73ZM556.05 129.727C552.285 129.727 549.03 128.927 546.283 127.328C543.553 125.712 541.444 123.466 539.958 120.591C538.472 117.699 537.728 114.346 537.728 110.533C537.728 106.688 538.472 103.328 539.958 100.452C541.444 97.5597 543.553 95.314 546.283 93.7145C549.03 92.0989 552.285 91.2911 556.05 91.2911C559.814 91.2911 563.062 92.0989 565.792 93.7145C568.539 95.314 570.655 97.5597 572.141 100.452C573.628 103.328 574.371 106.688 574.371 110.533C574.371 114.346 573.628 117.699 572.141 120.591C570.655 123.466 568.539 125.712 565.792 127.328C563.062 128.927 559.814 129.727 556.05 129.727ZM556.098 121.73C557.811 121.73 559.241 121.245 560.388 120.276C561.535 119.29 562.399 117.949 562.981 116.253C563.579 114.556 563.877 112.626 563.877 110.461C563.877 108.296 563.579 106.365 562.981 104.669C562.399 102.972 561.535 101.631 560.388 100.646C559.241 99.6601 557.811 99.1673 556.098 99.1673C554.369 99.1673 552.915 99.6601 551.736 100.646C550.573 101.631 549.692 102.972 549.094 104.669C548.513 106.365 548.222 108.296 548.222 110.461C548.222 112.626 548.513 114.556 549.094 116.253C549.692 117.949 550.573 119.29 551.736 120.276C552.915 121.245 554.369 121.73 556.098 121.73ZM594.801 129.606C591.973 129.606 589.413 128.879 587.118 127.425C584.84 125.955 583.031 123.798 581.69 120.954C580.365 118.094 579.703 114.589 579.703 110.436C579.703 106.171 580.389 102.625 581.763 99.7974C583.136 96.9539 584.962 94.8293 587.24 93.4237C589.534 92.0019 592.046 91.2911 594.776 91.2911C596.861 91.2911 598.597 91.6465 599.987 92.3574C601.393 93.0521 602.523 93.9246 603.38 94.9747C604.252 96.0087 604.915 97.0266 605.367 98.0283H605.682V79.3677H615.982V129H605.803V123.038H605.367C604.882 124.072 604.196 125.098 603.307 126.116C602.435 127.118 601.296 127.95 599.89 128.612C598.501 129.275 596.804 129.606 594.801 129.606ZM598.072 121.39C599.736 121.39 601.142 120.938 602.289 120.033C603.452 119.112 604.341 117.828 604.955 116.18C605.585 114.532 605.9 112.601 605.9 110.388C605.9 108.174 605.593 106.252 604.979 104.62C604.365 102.988 603.477 101.728 602.313 100.839C601.15 99.9509 599.736 99.5066 598.072 99.5066C596.376 99.5066 594.946 99.967 593.783 100.888C592.62 101.809 591.739 103.085 591.141 104.717C590.544 106.349 590.245 108.239 590.245 110.388C590.245 112.553 590.544 114.467 591.141 116.131C591.755 117.779 592.636 119.072 593.783 120.009C594.946 120.93 596.376 121.39 598.072 121.39Z" fill="#272727"/>
<path d="M183.5 105.5L94.5 134.5C94.5 134.5 88.1925 135.558 87.5 134C85.5 129.5 89.0001 126.5 89.0001 126.5L131 64.5C131 62.1667 128.2 58.5 133 54.5C137.8 50.5 142.5 51 163.5 59C180.642 65.5303 188.3 77.7 197.5 90.5C206.7 103.3 187.333 107.333 183.5 105.5Z" fill="#EA6D27"/>
<path d="M177.5 130L175 120L196.5 132L199.5 143L177.5 130Z" fill="#D9D9D9" stroke="black"/>
<path d="M187.745 112.185L178 115.544L199.784 127.02L210.64 123.536L187.745 112.185Z" fill="#D9D9D9" stroke="black"/>
<path d="M124.298 87.4672L95.7324 69.3982L92.1565 70.707L92.5208 73.2304L122.112 90.8541L123.192 89.4102L124.298 87.4672Z" fill="#973F27" stroke="black"/>
<path d="M93.6543 70.788L93.9238 84.3223L70.8906 56.5379L109.483 65.1345L93.6543 70.788Z" fill="white" stroke="black"/>
</svg>
